<?xml version="1.0" encoding="UTF-8"?>
<svg id="Layer_2" data-name="Layer 2" xmlns="http://www.w3.org/2000/svg" viewBox="0 0 53.2372 11.2987">
  <defs>
    <style>
      .cls-1 {
        fill: #605c5b;
        stroke-width: 0px;
      }
    </style>
  </defs>
  <g id="Layer_1-2" data-name="Layer 1">
    <g>
      <g>
        <g>
          <polygon class="cls-1" points="8.7298 5.8625 8.7298 4.5828 5.5753 2.7146 2.4712 4.5361 2.4712 6.0008 3.9098 6.0008 3.9098 5.4608 5.5753 4.48 7.1978 5.4048 7.1978 5.865 8.7298 5.8625"/>
          <polygon class="cls-1" points="11.0709 8.8322 11.0709 7.1678 7.9165 5.2996 4.8124 7.1211 4.8124 8.8346 6.2509 8.8346 6.2509 8.0458 7.9165 7.065 9.539 7.9898 9.539 8.8346 11.0709 8.8322"/>
          <polygon class="cls-1" points="15.867 8.7472 15.867 6.989 12.7126 5.1207 9.6084 6.9423 9.6084 8.7496 11.047 8.7496 11.047 7.8669 12.7126 6.8862 14.3351 7.811 14.3351 8.7496 15.867 8.7472"/>
          <polygon class="cls-1" points="6.2586 9.026 6.2586 7.3304 3.1041 5.4621 0 7.2837 0 8.7484 1.4386 8.7484 1.4386 8.2083 3.1041 7.2276 4.7266 8.1524 4.7266 9.0285 6.2586 9.026"/>
          <polygon class="cls-1" points="13.521 5.7287 13.521 4.449 10.3666 2.5808 7.2624 4.4023 7.2624 5.867 8.701 5.867 8.701 5.327 10.3666 4.3462 11.9891 5.271 11.9891 5.7312 13.521 5.7287"/>
          <polygon class="cls-1" points="11.0709 3.2417 11.0709 1.962 7.9165 .0937 4.8124 1.9153 4.8124 3.38 6.2509 3.38 6.2509 2.8399 7.9165 1.8592 9.539 2.784 9.539 3.2441 11.0709 3.2417"/>
        </g>
        <rect class="cls-1" x="0" y="8.6414" width="16.7296" height="1.7369"/>
        <rect class="cls-1" x="14.9986" y="1.6217" width="1.7369" height="8.7009"/>
        <rect class="cls-1" x="0" y="1.6217" width="1.7369" height="8.7009"/>
        <rect class="cls-1" x="0" y="0" width="16.7354" height="1.7369"/>
      </g>
      <g>
        <path class="cls-1" d="m26.6656.4194v4.8328h-1.4865v-1.6769l.022-1.6256h-.022l-.9371,3.3025h-1.3622l-.9225-3.3025h-.0292l.0218,1.6256v1.6769h-1.4936V.4194h2.3872l.5563,2.1455.2124.9004h.0146l.2124-.9004.5566-2.1455h2.2698Z"/>
        <path class="cls-1" d="m32.2894,5.2521h-1.7427l-.2199-.9228h-1.3032l-.227.9228h-1.6989l1.5672-4.8328h2.0502l1.5744,4.8328Zm-3.0096-1.9844h.7982l-.3954-1.6769-.4028,1.6769Z"/>
        <path class="cls-1" d="m35.3428.4194c.6299,0,1.1131.1403,1.4498.421.337.2807.5053.6528.5053,1.1167,0,.5321-.1648.9323-.4943,1.2007-.3295.2688-.8092.4028-1.4388.4028l-.1686.0879h-.8054v1.6036h-1.6694V.4194h2.6214Zm-.2929,2.1089c.1806,0,.3161-.0331.4064-.0989s.1356-.1818.1356-.3477c0-.1612-.0453-.2759-.1356-.3441-.0903-.0685-.2258-.1028-.4064-.1028h-.6591v.8936h.6591Zm1.0104.3587l1.5085,2.3651h-1.8527l-1.1274-2.116,1.4716-.2491Z"/>
        <path class="cls-1" d="m42.5115,3.7731c-.0879.3757-.2381.6784-.4505.9079-.2121.2294-.4699.3942-.7723.4943-.3027.1001-.6397.1502-1.0106.1502-.5077,0-.9457-.0977-1.3143-.2929s-.6516-.4785-.8495-.8495-.2965-.8203-.2965-1.3473c0-.5274.0986-.9764.2965-1.3473s.4809-.654.8495-.8495c.3686-.1952.8066-.2929,1.3143-.2929.3563,0,.6883.0501.9961.1502.3075.1001.5673.2574.7797.4723s.3525.4955.421.842l-1.4644.5712c-.039-.3173-.1186-.5223-.2381-.615-.1198-.0927-.2696-.1391-.4502-.1391-.166,0-.3066.0426-.421.1281-.115.0855-.2002.2172-.2565.3954-.056.1782-.084.4064-.084.6847,0,.2735.0256.5006.0769.6808.0512.1809.1353.3137.2527.3993.1171.0855.2732.1281.4687.1281.1755,0,.3194-.0524.432-.1573.112-.1052.1829-.2723.2121-.5017l1.5085.3882Z"/>
        <path class="cls-1" d="m47.6446.4194v2.7531c0,.7225-.194,1.2621-.5822,1.6185s-.9728.5345-1.7537.5345-1.3655-.1782-1.7537-.5345c-.3879-.3563-.5822-.8959-.5822-1.6185V.4194h1.7135v2.8851c0,.244.0536.4282.1612.5527.1073.1245.261.1868.4612.1868.205,0,.3611-.0623.4687-.1868.1073-.1245.1612-.3087.1612-.5527V.4194h1.7061Z"/>
        <path class="cls-1" d="m50.5368.3461c.4639,0,.8798.0575,1.2484.1722s.6945.2866.9776.5161l-.6883,1.0985c-.2294-.1612-.4699-.2905-.7213-.3882-.2515-.0974-.5235-.1463-.8164-.1463-.1269,0-.2282.0098-.3039.0292-.0757.0197-.1293.0465-.1609.0804-.0319.0343-.0477.0733-.0477.1171,0,.0587.045.1025.1356.132.0903.0292.2038.0611.3403.095l.6665.1537c.4928.1123.8652.2783,1.1167.4982.2512.2196.3769.5247.3769.9153s-.095.7115-.2854.9627c-.1904.2515-.4481.4383-.7726.5601-.3248.1222-.6918.1832-1.1021.1832-.3075,0-.615-.0283-.9225-.0843s-.5932-.1391-.8569-.2488c-.2634-.1099-.4904-.2428-.6808-.3993l.6737-1.1203c.1415.1123.3123.2136.5125.3039s.4076.1624.6224.216.415.0804.6004.0804c.1174,0,.2101-.0095.2783-.0292.0682-.0194.1159-.045.1427-.0769.0268-.0316.0405-.0697.0405-.1135,0-.0682-.0283-.1195-.0843-.1537-.0563-.0343-.1573-.0682-.3039-.1025l-.7321-.1612c-.2589-.0584-.5053-.1365-.7398-.2342-.2342-.0977-.4246-.2404-.5712-.4285-.1463-.188-.2196-.4431-.2196-.7651,0-.3319.0891-.6224.2673-.8715.1782-.2488.4368-.4431.7762-.5822.3394-.1388.7505-.2086,1.2338-.2086Z"/>
        <path class="cls-1" d="m21.5804,10.1894c-.184,0-.3534-.0349-.5087-.1054-.155-.0704-.2859-.1732-.3922-.3085s-.1811-.2982-.2246-.4896l.0056-.0109v.8604h-.0866v-3.9496h.0866v2.0938l-.0056-.0109c.0684-.285.2046-.5049.4086-.6602.2037-.155.4427-.2325.7168-.2325.2489,0,.4644.0558.6467.1676.182.1118.3235.2724.4247.4817.1007.209.1515.4617.1515.7573,0,.2921-.0508.5436-.1515.7547-.1013.2111-.2428.3725-.4247.4843-.1823.1118-.3977.1676-.6467.1676Zm-.0161-.0757c.3499,0,.6293-.1171.8386-.3517.209-.2342.3138-.5607.3138-.9792,0-.4183-.1048-.7447-.3138-.9792-.2093-.2345-.4887-.3517-.8386-.3517-.2093,0-.3977.054-.5654.1623-.1679.108-.2994.2615-.3951.4597-.0957.1984-.1432.4347-.1432.7089,0,.2706.0487.5058.1459.706.0975.2002.229.3546.3951.4626.1658.1083.3534.1623.5627.1623Z"/>
        <path class="cls-1" d="m24.4535,10.1894c-.1984,0-.369-.037-.5113-.111-.1427-.0737-.2507-.1829-.3247-.3273-.074-.1441-.111-.3173-.111-.5193v-1.8017h.0866v1.7909c0,.285.0766.5052.2298.6602.1535.155.369.2325.6467.2325.1949,0,.3625-.0341.5031-.1027.1406-.0684.2563-.1567.3464-.2651s.1567-.2219.2002-.3408c.0432-.1192.0649-.2293.0649-.3302v-1.6447h.0866v2.7052h-.0866v-.7195c-.0613.2199-.1929.4039-.3951.5519-.202.1479-.4471.2216-.7356.2216Z"/>
        <path class="cls-1" d="m26.6339,6.9c-.0361,0-.0649-.0109-.0866-.0326-.0214-.0217-.0323-.0505-.0323-.0866s.0109-.0649.0323-.0866c.0217-.0214.0505-.0323.0866-.0323s.0649.0109.0866.0323c.0217.0217.0326.0505.0326.0866s-.0109.0649-.0326.0866-.0505.0326-.0866.0326Zm.0434.5301v2.7052h-.0866v-2.7052h.0866Z"/>
        <path class="cls-1" d="m27.6619,6.1859v3.3707c0,.1984.0323.3408.0975.4274.0649.0866.1641.1297.2974.1297.0795,0,.1409-.0053.184-.0161.0434-.0109.0866-.027.1297-.0487v.0757c-.0358.0179-.0793.0335-.1297.0461s-.1118.0188-.184.0188c-.1585,0-.2786-.0505-.3596-.1515-.0813-.101-.1218-.2615-.1218-.4814v-3.3707h.0866Z"/>
        <path class="cls-1" d="m29.8854,10.1894c-.2454,0-.4617-.0558-.6493-.1676s-.3326-.2733-.4356-.4843c-.1027-.2111-.1541-.4626-.1541-.7547,0-.2956.0514-.5483.1541-.7573.103-.2093.248-.3699.4356-.4817s.4039-.1676.6493-.1676c.2777,0,.5149.0775.7115.2325.1964.1553.3291.3751.3977.6602l-.0056.0109v-2.0938h.0866v3.9496h-.0866v-.8604l.0056.0109c-.0399.1914-.1121.3543-.2166.4896s-.2325.2381-.3839.3085c-.1518.0704-.3211.1054-.5087.1054Zm.0161-.0757c.2093,0,.396-.054.5601-.1623.1641-.108.293-.2624.3869-.4626.0936-.2002.1406-.4353.1406-.706,0-.2742-.047-.5105-.1406-.7089-.0939-.1981-.2219-.3517-.3842-.4597-.1623-.1083-.3499-.1623-.5627-.1623-.3499,0-.632.1171-.8466.3517-.2149.2345-.322.561-.322.9792,0,.4186.1071.745.322.9792.2146.2345.4967.3517.8466.3517Z"/>
        <path class="cls-1" d="m32.0388,6.9c-.0361,0-.0649-.0109-.0866-.0326-.0214-.0217-.0323-.0505-.0323-.0866s.0109-.0649.0323-.0866c.0217-.0214.0505-.0323.0866-.0323s.0649.0109.0866.0323c.0217.0217.0326.0505.0326.0866s-.0109.0649-.0326.0866-.0505.0326-.0866.0326Zm.0434.5301v2.7052h-.0866v-2.7052h.0866Z"/>
        <path class="cls-1" d="m33.0019,10.1354v-2.7052h.0866v.7573l-.0056-.0161c.0396-.1515.1118-.2877.2163-.4083.1048-.1209.2345-.2158.3898-.2841.155-.0684.3299-.1027.5246-.1027.2093,0,.3886.0387.5383.1162s.2654.1885.3464.3329c.0813.1441.1218.3208.1218.5301v1.78h-.0866v-1.7692c0-.2885-.084-.5131-.2516-.6737-.1679-.1606-.396-.2407-.6845-.2407-.2093,0-.3977.0487-.5654.1459-.1676.0975-.3003.2266-.3977.3869-.0972.1606-.1459.3346-.1459.5222v1.6285h-.0866Z"/>
        <path class="cls-1" d="m37.4114,9.9352c.2777,0,.4967.054.6572.1623s.241.2524.241.433c0,.1515-.0517.2847-.1544.4004-.1027.1154-.2472.2055-.4327.2703-.1858.0649-.4013.0975-.6467.0975-.386,0-.6898-.0669-.9117-.2002-.2216-.1336-.3326-.3085-.3326-.5248,0-.1588.0622-.2941.1867-.4057.1245-.1118.2856-.1805.484-.2058l-.0053.0109c-.1083-.0288-.2084-.081-.3003-.1567-.0919-.076-.138-.1805-.138-.3141,0-.1515.0584-.2703.1758-.3569.1171-.0866.2568-.1297.4192-.1297l.2759.0432h-.1729c-.1588,0-.3003.0352-.4247.1054-.1245.0704-.1867.1796-.1867.3276s.0593.2586.1785.3326.2598.111.4221.111h.6655Zm-.3247,1.2877c.2128,0,.4048-.0291.5762-.0866.1711-.0578.3073-.138.4086-.2407.1007-.103.1515-.221.1515-.3546,0-.1585-.074-.2865-.2219-.3839s-.3464-.1462-.5953-.1462h-.6925c-.2307,0-.4212.0514-.5706.1541-.15.103-.2246.2354-.2246.3977,0,.1949.1045.3534.3138.4761.209.1227.494.184.8548.184Zm-.0434-3.8468c.2128,0,.3986.0349.5574.1054s.2821.1688.3707.295c.0884.1262.1324.2759.1324.4491,0,.1694-.044.3182-.1324.4462-.0886.128-.2119.2272-.3707.2976s-.3446.1054-.5574.1054c-.3208,0-.5797-.0775-.7764-.2325-.1964-.155-.2947-.3608-.2947-.6167,0-.1732.044-.3229.1327-.4491.0881-.1262.2137-.2246.376-.295.162-.0704.3496-.1054.5624-.1054Zm0,.0757c-.2956,0-.5337.0702-.7142.2111-.1802.1406-.2703.3282-.2703.5627,0,.2307.0901.4174.2703.5598.1805.1427.4186.2137.7142.2137.2959,0,.5322-.071.7089-.2137.1767-.1424.2651-.3291.2651-.5598,0-.2345-.0884-.4221-.2651-.5627-.1767-.1409-.413-.2111-.7089-.2111Zm1.2607-.5196l.027.0757h-.0161c-.1767,0-.312.0569-.4057.1705-.0939.1136-.1409.2607-.1409.4409l-.0702-.027c0-.1336.0244-.2489.0731-.3464.0484-.0972.1171-.1738.2055-.2298.0884-.0558.192-.084.3111-.084h.0161Z"/>
        <path class="cls-1" d="m41.6152,9.9352c.2777,0,.4967.054.6572.1623s.241.2524.241.433c0,.1515-.0517.2847-.1544.4004-.1027.1154-.2472.2055-.4327.2703-.1858.0649-.4013.0975-.6467.0975-.386,0-.6898-.0669-.9117-.2002-.2216-.1336-.3326-.3085-.3326-.5248,0-.1588.0622-.2941.1867-.4057.1245-.1118.2856-.1805.484-.2058l-.0053.0109c-.1083-.0288-.2084-.081-.3003-.1567-.0919-.076-.138-.1805-.138-.3141,0-.1515.0584-.2703.1758-.3569.1171-.0866.2568-.1297.4192-.1297l.2759.0432h-.1729c-.1588,0-.3003.0352-.4247.1054-.1245.0704-.1867.1796-.1867.3276s.0593.2586.1785.3326.2598.111.4221.111h.6655Zm-.3247,1.2877c.2128,0,.4048-.0291.5762-.0866.1711-.0578.3073-.138.4086-.2407.1007-.103.1515-.221.1515-.3546,0-.1585-.074-.2865-.2219-.3839s-.3464-.1462-.5953-.1462h-.6925c-.2307,0-.4212.0514-.5706.1541-.15.103-.2246.2354-.2246.3977,0,.1949.1045.3534.3138.4761.209.1227.494.184.8548.184Zm-.0434-3.8468c.2128,0,.3986.0349.5574.1054s.2821.1688.3707.295c.0884.1262.1324.2759.1324.4491,0,.1694-.044.3182-.1324.4462-.0886.128-.2119.2272-.3707.2976s-.3446.1054-.5574.1054c-.3208,0-.5797-.0775-.7764-.2325-.1964-.155-.2947-.3608-.2947-.6167,0-.1732.044-.3229.1327-.4491.0881-.1262.2137-.2246.376-.295.162-.0704.3496-.1054.5624-.1054Zm0,.0757c-.2956,0-.5337.0702-.7142.2111-.1802.1406-.2703.3282-.2703.5627,0,.2307.0901.4174.2703.5598.1805.1427.4186.2137.7142.2137.2959,0,.5322-.071.7089-.2137.1767-.1424.2651-.3291.2651-.5598,0-.2345-.0884-.4221-.2651-.5627-.1767-.1409-.413-.2111-.7089-.2111Zm1.2607-.5196l.027.0757h-.0161c-.1767,0-.312.0569-.4057.1705-.0939.1136-.1409.2607-.1409.4409l-.0702-.027c0-.1336.0244-.2489.0731-.3464.0484-.0972.1171-.1738.2055-.2298.0884-.0558.192-.084.3111-.084h.0161Z"/>
        <path class="cls-1" d="m42.9948,10.1354v-2.7052h.0866v.7033c.0611-.2128.1694-.3922.3247-.5383.155-.1459.3426-.219.5624-.219.0975,0,.1767.0117.2381.0349.0613.0238.1101.0552.1462.0948l-.0487.0649c-.0361-.0358-.0775-.0649-.1245-.0866-.047-.0214-.1209-.0323-.2216-.0323-.1661,0-.3158.0531-.4491.1594-.1336.1066-.2381.2445-.3138.4142-.0757.1694-.1136.3481-.1136.5354v1.5745h-.0866Z"/>
        <path class="cls-1" d="m45.7597,7.3762c.2489,0,.4679.0558.6575.1676.1893.1118.337.2733.4435.4843.1063.2111.1597.4626.1597.7547s-.0534.5436-.1597.7547c-.1066.2111-.2542.3725-.4435.4843-.1896.1118-.4086.1676-.6575.1676s-.4679-.0558-.6572-.1676-.3382-.2733-.4465-.4843-.1623-.4626-.1623-.7547.054-.5436.1623-.7547.2571-.3725.4465-.4843.4083-.1676.6572-.1676Zm0,.0757c-.2307,0-.4347.0531-.6114.1594-.1767.1066-.3156.2589-.4165.4573s-.1515.4365-.1515.7142c0,.2742.0505.5113.1515.7115s.2398.3534.4165.46c.1767.1063.3807.1594.6114.1594s.4347-.0531.6114-.1594c.1767-.1066.3147-.2598.4139-.46s.1488-.4374.1488-.7115c0-.2777-.0496-.5157-.1488-.7142s-.2372-.3508-.4139-.4573c-.1767-.1063-.3807-.1594-.6114-.1594Z"/>
        <path class="cls-1" d="m48.6707,10.1894c-.1984,0-.369-.037-.5113-.111-.1427-.0737-.2507-.1829-.3247-.3273-.074-.1441-.111-.3173-.111-.5193v-1.8017h.0866v1.7909c0,.285.0766.5052.2298.6602.1535.155.369.2325.6467.2325.1949,0,.3625-.0341.5031-.1027.1406-.0684.2563-.1567.3464-.2651s.1567-.2219.2002-.3408c.0432-.1192.0649-.2293.0649-.3302v-1.6447h.0866v2.7052h-.0866v-.7195c-.0613.2199-.1929.4039-.3951.5519-.202.1479-.4471.2216-.7356.2216Z"/>
        <path class="cls-1" d="m50.8079,11.2717v-3.8415h.0866v.8604l-.0056-.0109c.0434-.1911.1183-.3543.2246-.4896s.2372-.2381.3922-.3085c.1553-.0704.3247-.1054.5087-.1054.2489,0,.4644.0558.6467.1676.182.1118.3235.2724.4247.4817.1007.209.1515.4617.1515.7573,0,.2921-.0508.5436-.1515.7547-.1013.2111-.2428.3725-.4247.4843-.1823.1118-.3977.1676-.6467.1676-.2742,0-.5131-.0775-.7168-.2325-.204-.155-.3402-.3751-.4086-.6602l.0056-.0109v1.9858h-.0866Zm1.1903-1.158c.3499,0,.6293-.1171.8386-.3517.209-.2342.3138-.5607.3138-.9792,0-.4183-.1048-.7447-.3138-.9792-.2093-.2345-.4887-.3517-.8386-.3517-.2093,0-.3969.054-.5627.1623-.1661.108-.2976.2615-.3951.4597-.0972.1984-.1459.4347-.1459.7089,0,.2706.0476.5058.1432.706s.2272.3546.3951.4626c.1676.1083.3561.1623.5654.1623Z"/>
      </g>
    </g>
  </g>
</svg>