<?xml version="1.0" encoding="UTF-8"?>
<svg id="Layer_2" data-name="Layer 2" xmlns="http://www.w3.org/2000/svg" viewBox="0 0 105.0708 65.1584">
  <defs>
    <style>
      .cls-1 {
        fill: #323233;
        stroke-width: 0px;
      }
    </style>
  </defs>
  <g id="Layer_1-2" data-name="Layer 1">
    <g>
      <g>
        <polygon class="cls-1" points="54.8086 36.807 54.8086 28.7723 35.0039 17.043 15.5152 28.4791 15.5152 37.6751 24.5468 37.6751 24.5468 34.2845 35.0039 28.1272 45.1905 33.9333 45.1905 36.8222 54.8086 36.807"/>
        <polygon class="cls-1" points="69.507 55.4515 69.507 45.0019 49.7023 33.2725 30.2136 44.7086 30.2136 55.4667 39.2452 55.4667 39.2452 50.514 49.7023 44.3568 59.8889 50.1628 59.8889 55.4667 69.507 55.4515"/>
        <polygon class="cls-1" points="99.6184 54.9177 99.6184 43.8791 79.8137 32.1497 60.325 43.5858 60.325 54.9329 69.3566 54.9329 69.3566 49.3912 79.8137 43.234 90.0004 49.04 90.0004 54.9329 99.6184 54.9177"/>
        <polygon class="cls-1" points="39.2935 56.6685 39.2935 46.0226 19.4888 34.2932 .0001 45.7294 .0001 54.9253 9.0317 54.9253 9.0317 51.5348 19.4888 45.3775 29.6755 51.1835 29.6755 56.6837 39.2935 56.6685"/>
        <polygon class="cls-1" points="84.8895 35.9669 84.8895 27.9323 65.0848 16.2029 45.5961 27.639 45.5961 36.835 54.6277 36.835 54.6277 33.4444 65.0848 27.2871 75.2714 33.0932 75.2714 35.9821 84.8895 35.9669"/>
        <polygon class="cls-1" points="69.507 20.3526 69.507 12.3179 49.7023 .5886 30.2136 12.0247 30.2136 21.2207 39.2452 21.2207 39.2452 17.8301 49.7023 11.6728 59.8889 17.4789 59.8889 20.3678 69.507 20.3526"/>
      </g>
      <rect class="cls-1" x=".0001" y="54.2538" width="105.034" height="10.9046"/>
      <rect class="cls-1" x="94.1662" y="10.1819" width="10.9046" height="54.6274"/>
      <rect class="cls-1" x=".0001" y="10.1819" width="10.9046" height="54.6274"/>
      <rect class="cls-1" x="0" y="0" width="105.0708" height="10.9046"/>
    </g>
  </g>
</svg>