<?xml version="1.0" encoding="UTF-8"?>
<svg id="Layer_2" data-name="Layer 2" xmlns="http://www.w3.org/2000/svg" viewBox="0 0 107.4055 55.5207">
  <defs>
    <style>
      .cls-1 {
        fill: none;
        stroke: #383838;
        stroke-miterlimit: 10;
        stroke-width: 10px;
      }

      .cls-2 {
        fill: #383838;
        stroke-width: 0px;
      }
    </style>
  </defs>
  <g id="Layer_1-2" data-name="Layer 1">
    <g>
      <g>
        <polygon class="cls-2" points="56.0885 26.0764 56.0885 18.5871 37.628 7.6538 19.462 18.3138 19.462 26.8856 27.8806 26.8856 27.8806 23.7251 37.628 17.9858 47.1232 23.3977 47.1232 26.0906 56.0885 26.0764"/>
        <polygon class="cls-2" points="69.7893 46.5791 69.7893 33.7151 51.3288 22.7818 33.1628 33.4418 33.1628 43.4697 41.5815 43.4697 41.5815 38.8531 51.3288 33.1138 60.824 38.5257 60.824 46.5933 69.7893 46.5791"/>
        <polygon class="cls-2" points="97.857 46.5649 97.857 33.4406 79.3965 22.5073 61.2305 33.1672 61.2305 46.5791 69.6491 46.5791 69.6491 38.5786 79.3965 32.8392 88.8917 38.2512 88.8917 46.5791 97.857 46.5649"/>
        <polygon class="cls-2" points="41.6265 46.572 41.6265 34.6665 23.166 23.7333 5 34.3932 5 47.5561 13.4186 47.5561 13.4186 39.8046 23.166 34.0652 32.6612 39.4772 32.6612 46.5862 41.6265 46.572"/>
        <polygon class="cls-2" points="84.1277 25.2933 84.1277 17.804 65.6672 6.8708 47.5012 17.5307 47.5012 26.1025 55.9199 26.1025 55.9199 22.9421 65.6672 17.2027 75.1624 22.6147 75.1624 25.3075 84.1277 25.2933"/>
      </g>
      <polygon class="cls-1" points="5 8.2775 8.6053 5 102.4055 5 102.4055 47.1557 98.704 50.5207 6.5417 50.5207 5 48.548 5 8.2775"/>
    </g>
  </g>
</svg>