<?xml version="1.0" encoding="UTF-8"?>
<svg id="Layer_2" data-name="Layer 2" xmlns="http://www.w3.org/2000/svg" xmlns:xlink="http://www.w3.org/1999/xlink" viewBox="0 0 3091.8714 1755.9364">
  <defs>
    <style>
      .cls-1, .cls-2 {
        fill: none;
      }

      .cls-3 {
        clip-path: url(#clippath);
      }

      .cls-4 {
        clip-path: url(#clippath-1);
      }

      .cls-5 {
        clip-path: url(#clippath-4);
      }

      .cls-6 {
        clip-path: url(#clippath-3);
      }

      .cls-7 {
        clip-path: url(#clippath-2);
      }

      .cls-8 {
        clip-path: url(#clippath-7);
      }

      .cls-9 {
        clip-path: url(#clippath-6);
      }

      .cls-10 {
        clip-path: url(#clippath-5);
      }

      .cls-2 {
        stroke: #1a1818;
        stroke-miterlimit: 10;
        stroke-width: .75px;
      }
    </style>
    <clipPath id="clippath">
      <rect class="cls-1" x="294.5717" y="314.9887" width="1143.933" height="1537.463" transform="translate(-232.0514 1931.3278) rotate(-89.006)"/>
    </clipPath>
    <clipPath id="clippath-1">
      <rect class="cls-1" x="206.5717" y="401.9887" width="1143.933" height="1537.463" transform="translate(-405.5117 1928.8318) rotate(-89.006)"/>
    </clipPath>
    <clipPath id="clippath-2">
      <rect class="cls-1" x="1629.3616" y="314.9828" width="1143.933" height="1537.4749" transform="translate(1079.5828 3265.917) rotate(-89.006)"/>
    </clipPath>
    <clipPath id="clippath-3">
      <rect class="cls-1" x="1629.3616" y="314.9828" width="1143.933" height="1537.4749" transform="translate(1079.5828 3265.917) rotate(-89.006)"/>
    </clipPath>
    <clipPath id="clippath-4">
      <rect class="cls-1" x="294.5658" y="-113.5093" width="1143.9449" height="1537.463" transform="translate(196.3822 1510.2634) rotate(-89.006)"/>
    </clipPath>
    <clipPath id="clippath-5">
      <rect class="cls-1" x="294.5658" y="-113.5093" width="1143.9449" height="1537.463" transform="translate(196.3822 1510.2634) rotate(-89.006)"/>
    </clipPath>
    <clipPath id="clippath-6">
      <rect class="cls-1" x="1629.3552" y="-113.5147" width="1143.9449" height="1537.474" transform="translate(1508.0159 2844.8521) rotate(-89.006)"/>
    </clipPath>
    <clipPath id="clippath-7">
      <rect class="cls-1" x="1741.3552" y="-183.5147" width="1143.9449" height="1537.474" transform="translate(1688.0625 2888.0495) rotate(-89.006)"/>
    </clipPath>
  </defs>
  <g id="Layer_1-2" data-name="Layer 1">
    <g id="Group_155" data-name="Group 155">
      <g id="Group_140" data-name="Group 140">
        <g class="cls-3">
          <g id="Group_139" data-name="Group 139">
            <path id="Path_105" data-name="Path 105" class="cls-2" d="m912.311,1839.5527l-2.046-137.225-357.681-199.441-351.544,210.041,2.022,134.927"/>
            <path id="Path_106" data-name="Path 106" class="cls-2" d="m1644.158,1828.6127l-2.046-137.228-357.681-199.438-351.544,210.039,2.022,134.927"/>
          </g>
        </g>
      </g>
      <path id="Path_107" data-name="Path 107" class="cls-2" d="m1253.489,1515.9229l-2.046-137.228-357.681-199.434-351.544,210.038,2.022,134.924"/>
      <g id="Group_142" data-name="Group 142">
        <g class="cls-4">
          <g id="Group_141" data-name="Group 141">
            <path id="Path_108" data-name="Path 108" class="cls-2" d="m473.518,1581.5917l-2.046-137.228-357.681-199.438-351.544,210.039,2.022,134.927"/>
            <path id="Path_109" data-name="Path 109" class="cls-2" d="m1905.75,1574.9787l-2.046-137.228-357.684-199.436-351.544,210.038,2.022,134.926"/>
            <path id="Path_110" data-name="Path 110" class="cls-2" d="m2293.826,1162.4177l-2.046-137.228-357.681-199.438-351.544,210.038,2.022,134.927"/>
            <path id="Path_111" data-name="Path 111" class="cls-2" d="m1943.03,817.4567l-2.046-137.228-357.681-199.438-351.543,210.039,2.022,134.927"/>
            <path id="Path_112" data-name="Path 112" class="cls-2" d="m564.911,1003.6347l-2.045-137.225-357.682-199.441-351.544,210.041,2.022,134.927"/>
            <path id="Path_113" data-name="Path 113" class="cls-2" d="m174.242,690.9487l-2.046-137.228-357.681-199.438-351.544,210.039,2.022,134.927"/>
            <path id="Path_114" data-name="Path 114" class="cls-2" d="m914.502,663.0027l-2.046-137.228-357.681-199.438-351.544,210.039,2.022,134.927"/>
          </g>
        </g>
      </g>
      <g id="Group_144" data-name="Group 144">
        <g class="cls-7">
          <g id="Group_143" data-name="Group 143">
            <path id="Path_115" data-name="Path 115" class="cls-2" d="m2247.1129,1839.5527l-2.051-137.225-357.681-199.441-351.544,210.041,2.022,134.927"/>
            <path id="Path_116" data-name="Path 116" class="cls-2" d="m2978.952,1828.6117l-2.046-137.228-357.681-199.438-351.544,210.039,2.023,134.927"/>
          </g>
        </g>
      </g>
      <path id="Path_117" data-name="Path 117" class="cls-2" d="m2588.2869,1515.9229l-2.046-137.228-357.682-199.434-351.544,210.038,2.023,134.924"/>
      <g id="Group_146" data-name="Group 146">
        <g class="cls-6">
          <g id="Group_145" data-name="Group 145">
            <path id="Path_118" data-name="Path 118" class="cls-2" d="m1896.3129,1494.5917l-2.046-137.228-357.682-199.438-351.543,210.039,2.022,134.927"/>
            <path id="Path_119" data-name="Path 119" class="cls-2" d="m3328.545,1487.9787l-2.046-137.228-357.682-199.436-351.544,210.038,2.023,134.926"/>
            <path id="Path_120" data-name="Path 120" class="cls-2" d="m3365.828,730.4567l-2.046-137.228-357.681-199.438-351.544,210.039,2.023,134.927"/>
            <path id="Path_121" data-name="Path 121" class="cls-2" d="m1987.709,916.6347l-2.046-137.225-357.681-199.441-351.544,210.041,2.022,134.927"/>
            <path id="Path_122" data-name="Path 122" class="cls-2" d="m1597.0399,603.9477l-2.046-137.228-357.6859-199.438-351.539,210.039,2.022,134.927"/>
            <path id="Path_123" data-name="Path 123" class="cls-2" d="m2337.2979,576.0027l-2.046-137.228-357.681-199.438-351.548,210.039,2.022,134.927"/>
          </g>
        </g>
      </g>
      <g id="Group_148" data-name="Group 148">
        <g class="cls-5">
          <g id="Group_147" data-name="Group 147">
            <path id="Path_124" data-name="Path 124" class="cls-2" d="m912.311,1411.0607l-2.046-137.228-357.681-199.438-351.544,210.038,2.022,134.927"/>
            <path id="Path_125" data-name="Path 125" class="cls-2" d="m1644.158,1400.1197l-2.046-137.228-357.681-199.438-351.544,210.039,2.022,134.927"/>
          </g>
        </g>
      </g>
      <path id="Path_126" data-name="Path 126" class="cls-2" d="m1253.489,1087.4338l-2.046-137.228-357.681-199.438-351.544,210.038,2.022,134.927"/>
      <g id="Group_150" data-name="Group 150">
        <g class="cls-10">
          <g id="Group_149" data-name="Group 149">
            <path id="Path_127" data-name="Path 127" class="cls-2" d="m561.518,1066.0997l-2.046-137.228-357.681-199.438-351.544,210.039,2.022,134.927"/>
            <path id="Path_128" data-name="Path 128" class="cls-2" d="m1993.75,1059.4887l-2.046-137.228-357.684-199.442-351.544,210.042,2.022,134.927"/>
            <path id="Path_129" data-name="Path 129" class="cls-2" d="m2381.826,646.9257l-2.046-137.228-357.681-199.438-351.544,210.043,2.022,134.927"/>
            <path id="Path_130" data-name="Path 130" class="cls-2" d="m2031.03,301.9647l-2.046-137.228-357.681-199.438-351.543,210.039,2.022,134.927"/>
            <path id="Path_131" data-name="Path 131" class="cls-2" d="m652.911,488.1427l-2.046-137.228-357.681-199.438L-58.36,361.5147l2.022,134.927"/>
            <path id="Path_132" data-name="Path 132" class="cls-2" d="m262.242,175.4557l-2.046-137.228L-97.485-161.2103-449.029,48.8287l2.022,134.927"/>
            <path id="Path_133" data-name="Path 133" class="cls-2" d="m1002.502,147.5107l-2.046-137.228-357.681-199.438L291.231,20.8837l2.022,134.927"/>
          </g>
        </g>
      </g>
      <g id="Group_152" data-name="Group 152">
        <g class="cls-9">
          <g id="Group_151" data-name="Group 151">
            <path id="Path_134" data-name="Path 134" class="cls-2" d="m2247.1129,1411.0598l-2.046-137.228-357.686-199.438-351.544,210.038,2.022,134.927"/>
            <path id="Path_135" data-name="Path 135" class="cls-2" d="m2978.952,1400.1197l-2.046-137.228-357.681-199.438-351.544,210.039,2.023,134.927"/>
          </g>
        </g>
      </g>
      <path id="Path_136" data-name="Path 136" class="cls-2" d="m2588.2869,1087.4338l-2.046-137.228-357.682-199.438-351.544,210.038,2.023,134.927"/>
      <g id="Group_154" data-name="Group 154">
        <g class="cls-8">
          <g id="Group_153" data-name="Group 153">
            <path id="Path_137" data-name="Path 137" class="cls-2" d="m2008.3129,996.0997l-2.046-137.228-357.682-199.438-351.543,210.039,2.022,134.927"/>
            <path id="Path_138" data-name="Path 138" class="cls-2" d="m3440.545,989.4887l-2.046-137.228-357.682-199.442-351.544,210.042,2.022,134.927"/>
            <path id="Path_139" data-name="Path 139" class="cls-2" d="m3477.828,231.9647l-2.046-137.228-357.681-199.438-351.544,210.039,2.023,134.927"/>
            <path id="Path_140" data-name="Path 140" class="cls-2" d="m2099.709,418.1427l-2.046-137.228-357.681-199.438-351.544,210.038,2.022,134.927"/>
            <path id="Path_141" data-name="Path 141" class="cls-2" d="m1709.0399,105.4557l-2.046-137.228-357.6859-199.438L997.769-21.1713l2.022,134.927"/>
            <path id="Path_142" data-name="Path 142" class="cls-2" d="m2449.2979,77.5097l-2.046-137.228-357.681-199.438-351.548,210.039,2.022,134.927"/>
          </g>
        </g>
      </g>
    </g>
  </g>
</svg>