<?xml version="1.0" encoding="UTF-8"?>
<svg id="Layer_2" data-name="Layer 2" xmlns="http://www.w3.org/2000/svg" xmlns:xlink="http://www.w3.org/1999/xlink" viewBox="0 0 909.5988 625.483">
  <defs>
    <style>
      .cls-1, .cls-2 {
        fill: none;
      }

      .cls-3 {
        clip-path: url(#clippath);
      }

      .cls-2 {
        stroke: #231f20;
        stroke-miterlimit: 10;
        stroke-width: .7px;
      }
    </style>
    <clipPath id="clippath">
      <rect class="cls-1" width="909.5988" height="625.483"/>
    </clipPath>
  </defs>
  <g id="Layer_1-2" data-name="Layer 1">
    <g class="cls-3">
      <g id="Layer_1-2" data-name="Layer 1-2">
        <polyline class="cls-2" points="408.5651 534.3579 408.5651 488.6694 340.8143 439.4456 273.0636 488.6694 273.0636 534.3579"/>
        <polyline class="cls-2" points="544.0666 534.3579 544.0666 488.6694 476.3158 439.4456 408.5651 488.6694 408.5651 534.3579"/>
      </g>
      <g id="Layer_1-2-2" data-name="Layer 1-2">
        <polyline class="cls-2" points="679.5681 534.3579 679.5681 488.6694 611.8173 439.4456 544.0666 488.6694 544.0666 534.3579"/>
        <polyline class="cls-2" points="815.0696 534.3579 815.0696 488.6694 747.3188 439.4456 679.5681 488.6694 679.5681 534.3579"/>
      </g>
      <g id="Layer_1-2-3" data-name="Layer 1-2">
        <polyline class="cls-2" points="212.034 597.6043 212.034 551.9158 144.2833 502.692 76.5325 551.9158 76.5325 597.6043"/>
        <polyline class="cls-2" points="347.5355 597.6043 347.5355 551.9158 279.7848 502.692 212.034 551.9158 212.034 597.6043"/>
      </g>
      <g id="Layer_1-2-4" data-name="Layer 1-2">
        <polyline class="cls-2" points="483.037 597.6043 483.037 551.9158 415.2863 502.692 347.5355 551.9158 347.5355 597.6043"/>
        <polyline class="cls-2" points="618.5385 597.6043 618.5385 551.9158 550.7878 502.692 483.037 551.9158 483.037 597.6043"/>
      </g>
      <g id="Layer_1-2-5" data-name="Layer 1-2">
        <polyline class="cls-2" points="279.7848 686.3942 279.7848 640.7057 212.034 591.4819 144.2833 640.7057 144.2833 686.3942"/>
        <polyline class="cls-2" points="415.2863 686.3942 415.2863 640.7057 347.5355 591.4819 279.7848 640.7057 279.7848 686.3942"/>
      </g>
      <g id="Layer_1-2-6" data-name="Layer 1-2">
        <polyline class="cls-2" points="550.7878 686.3942 550.7878 640.7057 483.037 591.4819 415.2863 640.7057 415.2863 686.3942"/>
        <polyline class="cls-2" points="686.2893 686.3942 686.2893 640.7057 618.5385 591.4819 550.7878 640.7057 550.7878 686.3942"/>
      </g>
      <g id="Layer_1-2-7" data-name="Layer 1-2">
        <polyline class="cls-2" points="408.5651 332.8459 408.5651 287.1575 340.8143 237.9337 273.0636 287.1575 273.0636 332.8459"/>
        <polyline class="cls-2" points="544.0666 332.8459 544.0666 287.1575 476.3158 237.9337 408.5651 287.1575 408.5651 332.8459"/>
      </g>
      <g id="Layer_1-2-8" data-name="Layer 1-2">
        <polyline class="cls-2" points="679.5681 332.8459 679.5681 287.1575 611.8173 237.9337 544.0666 287.1575 544.0666 332.8459"/>
        <polyline class="cls-2" points="815.0696 332.8459 815.0696 287.1575 747.3188 237.9337 679.5681 287.1575 679.5681 332.8459"/>
      </g>
      <g id="Layer_1-2-9" data-name="Layer 1-2">
        <polyline class="cls-2" points="212.034 396.0924 212.034 350.4039 144.2833 301.1801 76.5325 350.4039 76.5325 396.0924"/>
        <polyline class="cls-2" points="347.5355 396.0924 347.5355 350.4039 279.7848 301.1801 212.034 350.4039 212.034 396.0924"/>
      </g>
      <g id="Layer_1-2-10" data-name="Layer 1-2">
        <polyline class="cls-2" points="483.037 396.0924 483.037 350.4039 415.2863 301.1801 347.5355 350.4039 347.5355 396.0924"/>
        <polyline class="cls-2" points="618.5385 396.0924 618.5385 350.4039 550.7878 301.1801 483.037 350.4039 483.037 396.0924"/>
      </g>
      <g id="Layer_1-2-11" data-name="Layer 1-2">
        <polyline class="cls-2" points="279.7848 484.8823 279.7848 439.1938 212.034 389.97 144.2833 439.1938 144.2833 484.8823"/>
        <polyline class="cls-2" points="415.2863 484.8823 415.2863 439.1938 347.5355 389.97 279.7848 439.1938 279.7848 484.8823"/>
      </g>
      <g id="Layer_1-2-12" data-name="Layer 1-2">
        <polyline class="cls-2" points="550.7878 484.8823 550.7878 439.1938 483.037 389.97 415.2863 439.1938 415.2863 484.8823"/>
        <polyline class="cls-2" points="686.2893 484.8823 686.2893 439.1938 618.5385 389.97 550.7878 439.1938 550.7878 484.8823"/>
      </g>
      <g id="Layer_1-2-13" data-name="Layer 1-2">
        <polyline class="cls-2" points="754.04 391.663 754.04 345.9745 686.2893 296.7507 618.5385 345.9745 618.5385 391.663"/>
        <polyline class="cls-2" points="889.5415 391.663 889.5415 345.9745 821.7908 296.7507 754.04 345.9745 754.04 391.663"/>
      </g>
      <g id="Layer_1-2-14" data-name="Layer 1-2">
        <polyline class="cls-2" points="721.1949 96.9318 721.1949 51.2433 653.4442 2.0195 585.6934 51.2433 585.6934 96.9318"/>
        <polyline class="cls-2" points="856.6965 96.9318 856.6965 51.2433 788.9457 2.0195 721.1949 51.2433 721.1949 96.9318"/>
      </g>
      <g id="Layer_1-2-15" data-name="Layer 1-2">
        <polyline class="cls-2" points="524.6639 160.1782 524.6639 114.4897 456.9131 65.2659 389.1624 114.4897 389.1624 160.1782"/>
        <polyline class="cls-2" points="660.1654 160.1782 660.1654 114.4897 592.4146 65.2659 524.6639 114.4897 524.6639 160.1782"/>
      </g>
      <g id="Layer_1-2-16" data-name="Layer 1-2">
        <polyline class="cls-2" points="795.6669 160.1782 795.6669 114.4897 727.9161 65.2659 660.1654 114.4897 660.1654 160.1782"/>
        <polyline class="cls-2" points="931.1684 160.1782 931.1684 114.4897 863.4176 65.2659 795.6669 114.4897 795.6669 160.1782"/>
      </g>
      <g id="Layer_1-2-17" data-name="Layer 1-2">
        <polyline class="cls-2" points="592.4146 248.9681 592.4146 203.2796 524.6639 154.0558 456.9131 203.2796 456.9131 248.9681"/>
        <polyline class="cls-2" points="727.9161 248.9681 727.9161 203.2796 660.1654 154.0558 592.4146 203.2796 592.4146 248.9681"/>
      </g>
      <g id="Layer_1-2-18" data-name="Layer 1-2">
        <polyline class="cls-2" points="380.3806 94.9123 380.3806 49.2238 312.6299 0 244.8791 49.2238 244.8791 94.9123"/>
        <polyline class="cls-2" points="515.8821 94.9123 515.8821 49.2238 448.1314 0 380.3806 49.2238 380.3806 94.9123"/>
      </g>
      <g id="Layer_1-2-19" data-name="Layer 1-2">
        <polyline class="cls-2" points="155.1256 98.9513 155.1256 53.2628 87.3748 4.039 19.6241 53.2628 19.6241 98.9513"/>
        <polyline class="cls-2" points="290.6271 98.9513 290.6271 53.2628 222.8763 4.039 155.1256 53.2628 155.1256 98.9513"/>
      </g>
    </g>
  </g>
</svg>