<?xml version="1.0" encoding="UTF-8"?>
<svg id="Layer_2" data-name="Layer 2" xmlns="http://www.w3.org/2000/svg" xmlns:xlink="http://www.w3.org/1999/xlink" viewBox="0 0 609.7568 327.6144">
  <defs>
    <style>
      .cls-1, .cls-2 {
        fill: none;
      }

      .cls-3 {
        clip-path: url(#clippath);
      }

      .cls-2 {
        stroke: #231f20;
        stroke-miterlimit: 10;
        stroke-width: .05px;
      }
    </style>
    <clipPath id="clippath">
      <rect class="cls-1" width="609.7568" height="327.6144"/>
    </clipPath>
  </defs>
  <g id="Layer_1-2" data-name="Layer 1">
    <g class="cls-3">
      <g id="Layer_1-2" data-name="Layer 1-2">
        <polyline class="cls-2" points="165.6845 229.605 165.6845 183.9165 97.9337 134.6927 30.183 183.9165 30.183 229.605"/>
        <polyline class="cls-2" points="301.186 229.605 301.186 183.9165 233.4352 134.6927 165.6845 183.9165 165.6845 229.605"/>
      </g>
      <g id="Layer_1-2-2" data-name="Layer 1-2">
        <polyline class="cls-2" points="436.6875 229.605 436.6875 183.9165 368.9367 134.6927 301.186 183.9165 301.186 229.605"/>
        <polyline class="cls-2" points="572.189 229.605 572.189 183.9165 504.4382 134.6927 436.6875 183.9165 436.6875 229.605"/>
      </g>
      <g id="Layer_1-2-3" data-name="Layer 1-2">
        <polyline class="cls-2" points="104.6549 292.8514 104.6549 247.1629 36.9042 197.9391 -30.8466 247.1629 -30.8466 292.8514"/>
      </g>
      <g id="Layer_1-2-4" data-name="Layer 1-2">
        <polyline class="cls-2" points="240.1564 292.8514 240.1564 247.1629 172.4057 197.9391 104.6549 247.1629 104.6549 292.8514"/>
        <polyline class="cls-2" points="375.6579 292.8514 375.6579 247.1629 307.9072 197.9391 240.1564 247.1629 240.1564 292.8514"/>
      </g>
      <g id="Layer_1-2-5" data-name="Layer 1-2">
        <polyline class="cls-2" points="36.9042 381.6413 36.9042 335.9528 -30.8466 286.729 -98.5973 335.9528 -98.5973 381.6413"/>
        <polyline class="cls-2" points="172.4057 381.6413 172.4057 335.9528 104.6549 286.729 36.9042 335.9528 36.9042 381.6413"/>
      </g>
      <g id="Layer_1-2-6" data-name="Layer 1-2">
        <polyline class="cls-2" points="307.9072 381.6413 307.9072 335.9528 240.1564 286.729 172.4057 335.9528 172.4057 381.6413"/>
        <polyline class="cls-2" points="443.4087 381.6413 443.4087 335.9528 375.6579 286.729 307.9072 335.9528 307.9072 381.6413"/>
      </g>
      <g id="Layer_1-2-7" data-name="Layer 1-2">
        <polyline class="cls-2" points="511.1594 288.422 511.1594 242.7335 443.4087 193.5097 375.6579 242.7335 375.6579 288.422"/>
        <polyline class="cls-2" points="646.6609 288.422 646.6609 242.7335 578.9102 193.5097 511.1594 242.7335 511.1594 288.422"/>
      </g>
      <g id="Layer_1-2-8" data-name="Layer 1-2">
        <polyline class="cls-2" points="281.7833 56.9372 281.7833 11.2487 214.0325 -37.9751 146.2818 11.2487 146.2818 56.9372"/>
        <polyline class="cls-2" points="417.2848 56.9372 417.2848 11.2487 349.534 -37.9751 281.7833 11.2487 281.7833 56.9372"/>
      </g>
      <g id="Layer_1-2-9" data-name="Layer 1-2">
        <polyline class="cls-2" points="552.7863 56.9372 552.7863 11.2487 485.0355 -37.9751 417.2848 11.2487 417.2848 56.9372"/>
        <polyline class="cls-2" points="688.2878 56.9372 688.2878 11.2487 620.537 -37.9751 552.7863 11.2487 552.7863 56.9372"/>
      </g>
      <g id="Layer_1-2-10" data-name="Layer 1-2">
        <polyline class="cls-2" points="349.534 145.7271 349.534 100.0386 281.7833 50.8148 214.0325 100.0386 214.0325 145.7271"/>
        <polyline class="cls-2" points="485.0355 145.7271 485.0355 100.0386 417.2848 50.8148 349.534 100.0386 349.534 145.7271"/>
      </g>
      <g id="Layer_1-2-11" data-name="Layer 1-2">
        <polyline class="cls-2" points="66.7864 145.7271 66.7864 100.0386 -.9643 50.8148 -68.7151 100.0386 -68.7151 145.7271"/>
        <polyline class="cls-2" points="202.2879 145.7271 202.2879 100.0386 134.5372 50.8148 66.7864 100.0386 66.7864 145.7271"/>
      </g>
      <g id="Layer_1-2-12" data-name="Layer 1-2">
        <polyline class="cls-2" points="115.4972 73.5296 115.4972 27.8412 47.7465 -21.3827 -20.0043 27.8412 -20.0043 73.5296"/>
      </g>
    </g>
  </g>
</svg>