<?xml version="1.0" encoding="UTF-8"?>
<svg id="Layer_2" data-name="Layer 2" xmlns="http://www.w3.org/2000/svg" xmlns:xlink="http://www.w3.org/1999/xlink" viewBox="0 0 109.3507 64.7265">
  <defs>
    <style>
      .cls-1 {
        clip-path: url(#clippath);
      }

      .cls-2 {
        stroke: #151515;
        stroke-miterlimit: 10;
      }

      .cls-2, .cls-3 {
        fill: #232262;
      }

      .cls-4, .cls-5 {
        opacity: .43;
      }

      .cls-3, .cls-5 {
        stroke-width: 0px;
      }

      .cls-5 {
        fill: none;
      }
    </style>
    <clipPath id="clippath">
      <rect class="cls-5" width="109.3507" height="64.7265"/>
    </clipPath>
  </defs>
  <g id="Layer_1-2" data-name="Layer 1">
    <g class="cls-1">
      <g class="cls-4">
        <g>
          <polygon class="cls-3" points="84.0175 -8.0801 61.3996 8.3907 60.3976 7.0148 83.3984 -9.9819 84.0175 -8.0801"/>
          <rect class="cls-3" x="52.6495" y="14.7629" width="17.1984" height="1.7021" transform="translate(45.6347 76.8627) rotate(-90)"/>
          <rect class="cls-3" x="95.8428" y="14.3265" width="17.9231" height="1.7768" transform="translate(89.5895 120.0192) rotate(-90)"/>
          <rect class="cls-3" x="80.2414" y="-2.0318" width="27.5793" height="1.748" transform="translate(170.7247 53.2599) rotate(-143.9371)"/>
        </g>
        <g>
          <polygon class="cls-3" points="39.6108 -8.0801 16.9929 8.3907 15.9909 7.0148 38.9917 -9.9819 39.6108 -8.0801"/>
          <rect class="cls-3" x="8.2428" y="14.7629" width="17.1984" height="1.7021" transform="translate(1.228 32.456) rotate(-90)"/>
          <rect class="cls-3" x="51.4361" y="14.3265" width="17.9231" height="1.7768" transform="translate(45.1828 75.6125) rotate(-90)"/>
          <rect class="cls-3" x="35.8347" y="-2.0318" width="27.5793" height="1.748" transform="translate(90.4209 27.1188) rotate(-143.9371)"/>
        </g>
      </g>
      <g class="cls-4">
        <g>
          <polygon class="cls-3" points="127.184 -8.181 104.5661 8.2898 103.5641 6.9139 126.5649 -10.0828 127.184 -8.181"/>
          <rect class="cls-3" x="95.816" y="14.662" width="17.1984" height="1.7021" transform="translate(88.9021 119.9283) rotate(-90)"/>
        </g>
        <g>
          <polygon class="cls-3" points="104.5364 25.0787 81.9186 41.5495 80.9166 40.1736 103.9174 23.1769 104.5364 25.0787"/>
          <rect class="cls-3" x="73.1684" y="47.9218" width="17.1984" height="1.7021" transform="translate(32.9948 130.5404) rotate(-90)"/>
          <rect class="cls-3" x="100.7604" y="31.127" width="27.5793" height="1.748" transform="translate(188.3108 125.3023) rotate(-143.9371)"/>
        </g>
      </g>
      <g class="cls-4">
        <g>
          <rect class="cls-3" x="7.3812" y="14.2256" width="17.9231" height="1.7768" transform="translate(1.2288 31.4567) rotate(-90)"/>
          <rect class="cls-3" x="-8.2201" y="-2.1327" width="27.5793" height="1.748" transform="translate(10.8127 1.0025) rotate(-143.9371)"/>
        </g>
        <g>
          <polygon class="cls-3" points="17.3151 25.0787 -5.3028 41.5495 -6.3048 40.1736 16.696 23.1769 17.3151 25.0787"/>
          <rect class="cls-3" x="29.1403" y="47.4853" width="17.9231" height="1.7768" transform="translate(-10.2718 86.4756) rotate(-90)"/>
          <rect class="cls-3" x="13.539" y="31.127" width="27.5793" height="1.748" transform="translate(30.5822 73.9574) rotate(-143.9371)"/>
        </g>
      </g>
      <g class="cls-4">
        <rect class="cls-2" x="-9.4604" y="64.2859" width="27.5793" height="1.748" transform="translate(-30.5289 120.3818) rotate(-143.9371)"/>
        <g>
          <polygon class="cls-2" points="60.4815 24.9778 37.8637 41.4486 36.8617 40.0727 59.8625 23.076 60.4815 24.9778"/>
          <rect class="cls-2" x="29.1135" y="47.8209" width="17.1984" height="1.7021" transform="translate(-10.9592 86.3847) rotate(-90)"/>
          <rect class="cls-2" x="72.3068" y="47.3844" width="17.9231" height="1.7768" transform="translate(32.9956 129.5412) rotate(-90)"/>
          <rect class="cls-2" x="56.7055" y="31.0262" width="27.5793" height="1.748" transform="translate(108.7026 99.1859) rotate(-143.9371)"/>
        </g>
        <g>
          <polygon class="cls-2" points="82.2407 58.2376 59.6228 74.7084 58.6208 73.3324 81.6216 56.3358 82.2407 58.2376"/>
          <rect class="cls-2" x="78.4646" y="64.2859" width="27.5793" height="1.748" transform="translate(128.4721 172.1409) rotate(-143.9371)"/>
        </g>
        <g>
          <polygon class="cls-2" points="37.834 58.2376 15.2161 74.7084 14.2141 73.3324 37.2149 56.3358 37.834 58.2376"/>
          <rect class="cls-2" x="34.0579" y="64.2859" width="27.5793" height="1.748" transform="translate(48.1683 145.9998) rotate(-143.9371)"/>
        </g>
      </g>
    </g>
  </g>
</svg>